<svg width="654" height="432" viewBox="0 0 654 432" fill="none" xmlns="http://www.w3.org/2000/svg">
<path d="M334.576 271.44C327.856 271.44 322.192 270.384 317.584 268.272C313.072 266.064 309.664 263.568 307.36 260.784C305.152 258 304.048 255.696 304.048 253.872C304.048 252.912 304.384 252.192 305.056 251.712C305.824 251.136 306.592 250.848 307.36 250.848H313.84C314.8 250.848 315.664 251.328 316.432 252.288C318.736 254.976 321.232 257.088 323.92 258.624C326.608 260.16 330.208 260.928 334.72 260.928C339.712 260.928 343.744 259.968 346.816 258.048C349.984 256.032 351.568 253.296 351.568 249.84C351.568 247.536 350.896 245.664 349.552 244.224C348.304 242.688 346.096 241.392 342.928 240.336C339.856 239.184 335.248 237.936 329.104 236.592C320.752 234.768 314.8 232.128 311.248 228.672C307.792 225.216 306.064 220.752 306.064 215.28C306.064 211.632 307.12 208.176 309.232 204.912C311.44 201.552 314.608 198.864 318.736 196.848C322.96 194.736 328 193.68 333.856 193.68C340 193.68 345.232 194.688 349.552 196.704C353.872 198.72 357.088 201.12 359.2 203.904C361.408 206.592 362.512 208.848 362.512 210.672C362.512 211.536 362.176 212.256 361.504 212.832C360.928 213.408 360.208 213.696 359.344 213.696H353.296C352.144 213.696 351.184 213.216 350.416 212.256C348.88 210.432 347.536 209.04 346.384 208.08C345.328 207.024 343.744 206.112 341.632 205.344C339.616 204.576 337.024 204.192 333.856 204.192C329.248 204.192 325.696 205.2 323.2 207.216C320.704 209.136 319.456 211.68 319.456 214.848C319.456 216.864 319.984 218.592 321.04 220.032C322.096 221.376 324.112 222.624 327.088 223.776C330.16 224.928 334.576 226.128 340.336 227.376C349.456 229.296 355.888 232.08 359.632 235.728C363.472 239.28 365.392 243.84 365.392 249.408C365.392 253.536 364.192 257.28 361.792 260.64C359.392 264 355.84 266.64 351.136 268.56C346.528 270.48 341.008 271.44 334.576 271.44ZM385.518 270C384.558 270 383.742 269.712 383.07 269.136C382.494 268.464 382.206 267.648 382.206 266.688V171.072C382.206 170.112 382.494 169.344 383.07 168.768C383.742 168.096 384.558 167.76 385.518 167.76H392.718C393.678 167.76 394.446 168.096 395.022 168.768C395.694 169.344 396.03 170.112 396.03 171.072V204.624C398.814 201.072 402.078 198.384 405.822 196.56C409.566 194.64 414.222 193.68 419.79 193.68C429.006 193.68 436.158 196.656 441.246 202.608C446.43 208.464 449.022 216.288 449.022 226.08V266.688C449.022 267.648 448.686 268.464 448.014 269.136C447.438 269.712 446.67 270 445.71 270H438.51C437.55 270 436.734 269.712 436.062 269.136C435.486 268.464 435.198 267.648 435.198 266.688V226.8C435.198 219.984 433.518 214.704 430.158 210.96C426.894 207.216 422.142 205.344 415.902 205.344C409.854 205.344 405.006 207.264 401.358 211.104C397.806 214.848 396.03 220.08 396.03 226.8V266.688C396.03 267.648 395.694 268.464 395.022 269.136C394.446 269.712 393.678 270 392.718 270H385.518ZM490.692 271.44C485.988 271.44 481.62 270.48 477.588 268.56C473.556 266.64 470.34 264.048 467.94 260.784C465.636 257.424 464.484 253.728 464.484 249.696C464.484 243.36 467.076 238.176 472.26 234.144C477.54 230.016 484.644 227.328 493.572 226.08L515.028 223.056V218.88C515.028 209.088 509.412 204.192 498.18 204.192C493.956 204.192 490.5 205.104 487.812 206.928C485.124 208.656 483.108 210.72 481.764 213.12C481.476 213.984 481.092 214.608 480.612 214.992C480.228 215.376 479.652 215.568 478.884 215.568H472.692C471.828 215.568 471.06 215.28 470.388 214.704C469.812 214.032 469.524 213.264 469.524 212.4C469.62 210.096 470.676 207.504 472.692 204.624C474.804 201.648 478.02 199.104 482.34 196.992C486.66 194.784 491.988 193.68 498.324 193.68C509.076 193.68 516.804 196.224 521.508 201.312C526.212 206.304 528.564 212.544 528.564 220.032V266.688C528.564 267.648 528.228 268.464 527.556 269.136C526.98 269.712 526.212 270 525.252 270H518.628C517.668 270 516.852 269.712 516.18 269.136C515.604 268.464 515.316 267.648 515.316 266.688V260.496C513.204 263.568 510.132 266.16 506.1 268.272C502.068 270.384 496.932 271.44 490.692 271.44ZM493.716 260.64C499.956 260.64 505.044 258.624 508.98 254.592C513.012 250.464 515.028 244.56 515.028 236.88V232.848L498.324 235.296C491.508 236.256 486.372 237.888 482.916 240.192C479.46 242.4 477.732 245.232 477.732 248.688C477.732 252.528 479.316 255.504 482.484 257.616C485.652 259.632 489.396 260.64 493.716 260.64ZM568.856 270C567.608 270 566.648 269.712 565.976 269.136C565.304 268.56 564.728 267.648 564.248 266.4L543.8 199.584L543.512 198.144C543.512 197.28 543.8 196.56 544.376 195.984C545.048 195.408 545.768 195.12 546.536 195.12H552.872C553.832 195.12 554.6 195.408 555.176 195.984C555.848 196.464 556.28 196.992 556.472 197.568L572.456 251.856L589.592 198.144C589.784 197.376 590.216 196.704 590.888 196.128C591.56 195.456 592.472 195.12 593.624 195.12H598.52C599.672 195.12 600.584 195.456 601.256 196.128C601.928 196.704 602.36 197.376 602.552 198.144L619.688 251.856L635.672 197.568C635.768 197.088 636.104 196.56 636.68 195.984C637.352 195.408 638.168 195.12 639.128 195.12H645.608C646.376 195.12 647.048 195.408 647.624 195.984C648.2 196.56 648.488 197.28 648.488 198.144L648.2 199.584L627.896 266.4C627.416 267.648 626.84 268.56 626.168 269.136C625.496 269.712 624.488 270 623.144 270H617.528C614.936 270 613.352 268.8 612.776 266.4L596.072 214.848L579.368 266.4C578.6 268.8 576.968 270 574.472 270H568.856Z" fill="black"/>
<path d="M99.256 46.152C98.296 46.152 97.48 45.864 96.808 45.288C96.232 44.616 95.944 43.8 95.944 42.84V35.064C95.944 34.104 96.232 33.288 96.808 32.616C97.48 31.944 98.296 31.608 99.256 31.608H108.472C109.432 31.608 110.248 31.944 110.92 32.616C111.592 33.288 111.928 34.104 111.928 35.064V42.84C111.928 43.8 111.592 44.616 110.92 45.288C110.248 45.864 109.432 46.152 108.472 46.152H99.256ZM83.416 162.36C82.456 162.36 81.688 162.024 81.112 161.352C80.44 160.776 80.104 160.008 80.104 159.048V154.152C80.104 153.192 80.44 152.376 81.112 151.704C81.688 151.128 82.456 150.84 83.416 150.84H85.432C90.136 150.84 93.256 149.64 94.792 147.24C96.328 144.84 97.096 141.288 97.096 136.584V63.432C97.096 62.472 97.384 61.704 97.96 61.128C98.632 60.456 99.448 60.12 100.408 60.12H107.464C108.424 60.12 109.192 60.456 109.768 61.128C110.44 61.704 110.776 62.472 110.776 63.432V136.728C110.776 153.816 102.568 162.36 86.152 162.36H83.416ZM162.891 136.44C152.331 136.44 144.123 133.464 138.267 127.512C132.507 121.56 129.435 113.64 129.051 103.752L128.907 97.56L129.051 91.368C129.435 81.576 132.555 73.704 138.411 67.752C144.267 61.704 152.427 58.68 162.891 58.68C173.355 58.68 181.515 61.704 187.371 67.752C193.227 73.704 196.347 81.576 196.731 91.368C196.827 92.424 196.875 94.488 196.875 97.56C196.875 100.632 196.827 102.696 196.731 103.752C196.347 113.64 193.227 121.56 187.371 127.512C181.611 133.464 173.451 136.44 162.891 136.44ZM162.891 125.352C168.939 125.352 173.691 123.432 177.147 119.592C180.699 115.752 182.619 110.232 182.907 103.032C183.003 102.072 183.051 100.248 183.051 97.56C183.051 94.872 183.003 93.048 182.907 92.088C182.619 84.888 180.699 79.368 177.147 75.528C173.691 71.688 168.939 69.768 162.891 69.768C156.843 69.768 152.043 71.688 148.491 75.528C144.939 79.368 143.067 84.888 142.875 92.088L142.73 97.56L142.875 103.032C143.067 110.232 144.939 115.752 148.491 119.592C152.043 123.432 156.843 125.352 162.891 125.352ZM218.218 135C217.258 135 216.442 134.712 215.77 134.136C215.194 133.464 214.906 132.648 214.906 131.688V63.576C214.906 62.616 215.194 61.8 215.77 61.128C216.442 60.456 217.258 60.12 218.218 60.12H224.842C225.802 60.12 226.618 60.456 227.29 61.128C227.962 61.8 228.298 62.616 228.298 63.576V69.912C232.234 63.384 238.954 60.12 248.458 60.12H254.074C255.034 60.12 255.802 60.456 256.378 61.128C257.05 61.704 257.386 62.472 257.386 63.432V69.336C257.386 70.296 257.05 71.064 256.378 71.64C255.802 72.216 255.034 72.504 254.074 72.504H245.434C240.25 72.504 236.17 74.04 233.194 77.112C230.218 80.088 228.73 84.168 228.73 89.352V131.688C228.73 132.648 228.394 133.464 227.722 134.136C227.05 134.712 226.234 135 225.274 135H218.218ZM295.422 136.44C285.438 136.44 277.902 133.176 272.814 126.648C267.726 120.12 265.038 111.864 264.75 101.88L264.606 97.56L264.75 93.24C265.038 83.352 267.726 75.144 272.814 68.616C277.902 61.992 285.438 58.68 295.422 58.68C305.31 58.68 313.086 62.184 318.75 69.192V36.072C318.75 35.112 319.038 34.344 319.614 33.768C320.286 33.096 321.102 32.76 322.062 32.76H328.974C329.934 32.76 330.702 33.096 331.278 33.768C331.95 34.344 332.286 35.112 332.286 36.072V131.688C332.286 132.648 331.95 133.464 331.278 134.136C330.702 134.712 329.934 135 328.974 135H322.494C321.534 135 320.718 134.712 320.046 134.136C319.47 133.464 319.182 132.648 319.182 131.688V125.64C313.614 132.84 305.694 136.44 295.422 136.44ZM298.446 124.776C305.07 124.776 310.014 122.616 313.278 118.296C316.638 113.88 318.462 108.648 318.75 102.6C318.846 101.544 318.894 99.72 318.894 97.128C318.894 94.44 318.846 92.568 318.75 91.512C318.558 85.848 316.734 80.904 313.278 76.68C309.822 72.456 304.878 70.344 298.446 70.344C291.63 70.344 286.638 72.456 283.47 76.68C280.398 80.904 278.718 86.472 278.43 93.384L278.286 97.56C278.286 115.704 285.006 124.776 298.446 124.776ZM374.583 136.44C369.879 136.44 365.511 135.48 361.479 133.56C357.447 131.64 354.231 129.048 351.831 125.784C349.527 122.424 348.375 118.728 348.375 114.696C348.375 108.36 350.967 103.176 356.151 99.144C361.431 95.016 368.535 92.328 377.463 91.08L398.919 88.056V83.88C398.919 74.088 393.303 69.192 382.071 69.192C377.847 69.192 374.391 70.104 371.703 71.928C369.015 73.656 366.999 75.72 365.655 78.12C365.367 78.984 364.983 79.608 364.503 79.992C364.119 80.376 363.543 80.568 362.775 80.568H356.583C355.719 80.568 354.951 80.28 354.279 79.704C353.703 79.032 353.415 78.264 353.415 77.4C353.511 75.096 354.567 72.504 356.583 69.624C358.695 66.648 361.911 64.104 366.231 61.992C370.551 59.784 375.879 58.68 382.215 58.68C392.967 58.68 400.695 61.224 405.399 66.312C410.103 71.304 412.455 77.544 412.455 85.032V131.688C412.455 132.648 412.119 133.464 411.447 134.136C410.871 134.712 410.103 135 409.143 135H402.519C401.559 135 400.743 134.712 400.071 134.136C399.495 133.464 399.207 132.648 399.207 131.688V125.496C397.095 128.568 394.023 131.16 389.991 133.272C385.959 135.384 380.823 136.44 374.583 136.44ZM377.607 125.64C383.847 125.64 388.935 123.624 392.871 119.592C396.903 115.464 398.919 109.56 398.919 101.88V97.848L382.215 100.296C375.399 101.256 370.263 102.888 366.807 105.192C363.351 107.4 361.623 110.232 361.623 113.688C361.623 117.528 363.207 120.504 366.375 122.616C369.543 124.632 373.287 125.64 377.607 125.64ZM436.468 135C435.508 135 434.692 134.712 434.02 134.136C433.444 133.464 433.156 132.648 433.156 131.688V63.432C433.156 62.472 433.444 61.704 434.02 61.128C434.692 60.456 435.508 60.12 436.468 60.12H443.236C444.196 60.12 444.964 60.456 445.54 61.128C446.212 61.704 446.548 62.472 446.548 63.432V69.768C449.332 66.216 452.596 63.48 456.34 61.56C460.18 59.64 464.932 58.68 470.596 58.68C479.812 58.68 486.964 61.656 492.052 67.608C497.236 73.464 499.828 81.288 499.828 91.08V131.688C499.828 132.648 499.492 133.464 498.82 134.136C498.244 134.712 497.476 135 496.516 135H489.316C488.356 135 487.54 134.712 486.868 134.136C486.292 133.464 486.004 132.648 486.004 131.688V91.8C486.004 84.984 484.324 79.704 480.964 75.96C477.7 72.216 472.948 70.344 466.708 70.344C460.66 70.344 455.86 72.264 452.308 76.104C448.756 79.848 446.98 85.08 446.98 91.8V131.688C446.98 132.648 446.644 133.464 445.972 134.136C445.396 134.712 444.628 135 443.668 135H436.468Z" fill="black"/>
<path d="M23.5 212.333C19.1738 212.333 15.6667 215.84 15.6667 220.167V392.5C15.6667 396.826 19.1738 400.333 23.5 400.333H227.167C231.493 400.333 235 396.826 235 392.5V220.167C235 215.84 231.493 212.333 227.167 212.333H23.5ZM23.5 204.5H227.167C235.819 204.5 242.833 211.514 242.833 220.167V392.5C242.833 401.152 235.819 408.167 227.167 408.167H23.5C14.8475 408.167 7.83333 401.152 7.83333 392.5V220.167C7.83333 211.514 14.8475 204.5 23.5 204.5Z" fill="black"/>
<path d="M235 243.667H15.6667V251.5H235V243.667Z" fill="black"/>
<path d="M219.333 235.833C223.66 235.833 227.167 232.326 227.167 228C227.167 223.674 223.66 220.167 219.333 220.167C215.007 220.167 211.5 223.674 211.5 228C211.5 232.326 215.007 235.833 219.333 235.833Z" fill="black"/>
<path d="M195.833 235.833C200.16 235.833 203.667 232.326 203.667 228C203.667 223.674 200.16 220.167 195.833 220.167C191.507 220.167 188 223.674 188 228C188 232.326 191.507 235.833 195.833 235.833Z" fill="black"/>
<path d="M172.333 235.833C176.66 235.833 180.167 232.326 180.167 228C180.167 223.674 176.66 220.167 172.333 220.167C168.007 220.167 164.5 223.674 164.5 228C164.5 232.326 168.007 235.833 172.333 235.833Z" fill="black"/>
<path d="M90.044 353.373C92.1853 355.514 92.1853 358.986 90.044 361.127C87.9026 363.269 84.4307 363.269 82.2894 361.127L50.956 329.794C48.8147 327.653 48.8147 324.181 50.956 322.039L82.2894 290.706C84.4307 288.565 87.9026 288.565 90.044 290.706C92.1853 292.847 92.1853 296.319 90.044 298.461L62.5879 325.917L90.044 353.373Z" fill="black"/>
<path d="M160.623 298.461C158.481 296.319 158.481 292.847 160.623 290.706C162.764 288.565 166.236 288.565 168.377 290.706L199.711 322.039C201.852 324.181 201.852 327.653 199.711 329.794L168.377 361.127C166.236 363.269 162.764 363.269 160.623 361.127C158.481 358.986 158.481 355.514 160.623 353.373L188.079 325.917L160.623 298.461Z" fill="black"/>
<path d="M114.939 382.256C114.107 385.168 111.072 386.854 108.16 386.022C105.248 385.19 103.562 382.155 104.394 379.244L135.728 269.577C136.56 266.665 139.595 264.979 142.506 265.811C145.418 266.643 147.104 269.678 146.272 272.59L114.939 382.256Z" fill="black"/>
</svg>
